REM DATE 2023-02-19 10:58 AM
REM RECORDED_BY "rekordbox-dj"
TITLE "REC-2023-02-19"
PERFORMER "#50 Odessa Vs 19-02-09"
FILE "01 REC-2023-02-19.wav" WAVE
	TRACK 01 AUDIO
		TITLE "Villa"
		PERFORMER "El Michels Affair"
		FILE "/Users/henners/Documents/Media/Music/Music/Downloads/El Michels Affair - Villa.mp3" WAVE
		INDEX 01 00:00:00
	TRACK 02 AUDIO
		TITLE "Anahata"
		PERFORMER "Sound Ambassador"
		FILE "/Users/henners/Documents/Media/Music/Music/Downloads/Sound Ambassador - Anahata.flac" WAVE
		INDEX 01 00:00:39
	TRACK 03 AUDIO
		TITLE "Illusion Of Seclusion"
		PERFORMER "Photay"
		FILE "/Users/henners/Documents/Media/Music/Music/Downloads/Photay - Illusion Of Seclusion.mp3" WAVE
		INDEX 01 00:05:36
	TRACK 04 AUDIO
		TITLE "Heart to Heart"
		PERFORMER "Txai Fernando"
		FILE "/Users/henners/Documents/Media/Music/Music/Downloads/Txai Fernando - Heart to Heart.mp3" WAVE